<mxfile host="app.diagrams.net" modified="2023-07-30T03:57:41.606Z" agent="Mozilla/5.0 (Macintosh; Intel Mac OS X 10_15_7) AppleWebKit/537.36 (KHTML, like Gecko) Chrome/114.0.0.0 Safari/537.36" version="21.6.6" etag="nbR4yCLGmVVPSGXn2OJl" type="github">
  <diagram name="페이지-1" id="UwEBwi8xGna0DSJfHZ5G">
    <mxGraphModel>
      <root>
        <mxCell id="0" />
        <mxCell id="1" parent="0" />
      </root>
    </mxGraphModel>
  </diagram>
</mxfile>
